<svg width="276" height="236" viewBox="0 0 276 236" fill="none" xmlns="http://www.w3.org/2000/svg">
<path d="M138 2.8252H266.09C269.609 2.8252 271.721 4.15311 272.819 6.89368C273.1 7.83627 273.21 8.82209 273.142 9.80377V188.322C273.142 193.846 270.918 196.064 265.386 196.064H10.5566C9.46286 196.111 8.36797 196.002 7.30507 195.739C6.02739 195.385 4.90104 194.62 4.09976 193.561C3.29848 192.501 2.86673 191.206 2.87113 189.876C2.87113 189.354 2.87113 188.831 2.87113 188.308V10.5101C2.87113 4.97245 4.98253 2.8252 10.4581 2.8252H138ZM137.887 178.999H253.788C256.35 178.999 256.35 178.999 256.35 176.484C256.35 125.176 256.35 73.8493 256.35 22.5036C256.35 19.9326 256.35 19.9185 253.816 19.9185H22.2114C19.6496 19.9185 19.6355 19.9185 19.6355 22.4613V176.442C19.6355 178.985 19.6355 178.999 22.1832 178.999H137.887Z" stroke="#4169E1" stroke-width="3" stroke-miterlimit="10"/>
<path d="M137.999 233.175H74.8973C71.9554 233.175 71.688 232.92 71.7021 229.897C71.6436 227.876 71.6905 225.853 71.8428 223.837C72.1146 220.456 73.6609 217.307 76.1666 215.031C78.6723 212.755 81.9487 211.524 85.3275 211.589C89.6348 211.589 93.9561 211.589 98.2774 211.589H190.08C196.626 211.589 201.791 215.149 203.551 220.941C204.607 224.43 204.283 228.004 204.17 231.607C204.174 231.827 204.13 232.045 204.043 232.248C203.956 232.45 203.826 232.631 203.664 232.779C203.502 232.928 203.31 233.04 203.101 233.108C202.892 233.176 202.671 233.199 202.453 233.175H137.999Z" stroke="#4169E1" stroke-width="3" stroke-miterlimit="10"/>
<path d="M92.6334 66.7908V107.377H100.882V117.265H92.6334V133.2H82.0202V117.322H50.9688V107.433C56.1111 100.718 61.1926 93.9657 66.213 87.1755C71.2334 80.3853 76.2913 73.6045 81.3868 66.8331L92.6334 66.7908ZM82.0202 107.56V87.0484C82.0202 86.6434 82.0202 85.9088 82.0202 84.8446C82.0202 83.7804 82.0624 82.6644 82.1469 81.4966L62.8488 107.56H82.0202Z" fill="#4169E1"/>
<path d="M216.093 66.7907V107.377H224.342V117.265H216.093V133.2H205.48V117.322H174.429V107.433C179.571 100.699 184.629 93.9233 189.602 87.1049C194.576 80.2864 199.634 73.5056 204.776 66.7625L216.093 66.7907ZM205.48 107.56V87.0483C205.48 86.6434 205.48 85.9088 205.48 84.8446C205.48 83.7804 205.522 82.6644 205.607 81.4965L186.309 107.56H205.48Z" fill="#4169E1"/>
<circle cx="137" cy="101" r="29" fill="#4169E1"/>
<path d="M145.615 97.0642H141.026V92.3318H145.615V97.0642ZM132.595 97.0642H128.006V92.3318H132.595V97.0642Z" fill="white"/>
<path d="M122.179 109.891L120.926 106.91C123.366 105.397 125.986 104.197 128.724 103.336C134.553 101.641 140.743 101.641 146.572 103.336C149.313 104.199 151.937 105.4 154.384 106.91L153.117 109.891C150.778 108.564 148.274 107.552 145.671 106.882C140.368 105.634 134.846 105.658 129.554 106.953C126.98 107.611 124.501 108.598 122.179 109.891Z" fill="white"/>
</svg>
