<svg width="50" height="50" viewBox="0 0 50 50" fill="none" xmlns="http://www.w3.org/2000/svg">
<circle cx="25" cy="25" r="25" fill="#767676"/>
<path d="M33.9119 13.5415H16.0878C14.6815 13.5415 13.5415 14.6815 13.5415 16.0878V33.9119C13.5415 35.3182 14.6815 36.4582 16.0878 36.4582H33.9119C35.3182 36.4582 36.4582 35.3182 36.4582 33.9119V16.0878C36.4582 14.6815 35.3182 13.5415 33.9119 13.5415Z" stroke="white" stroke-width="1.5" stroke-linecap="round" stroke-linejoin="round"/>
<path d="M20.544 22.4537C21.5987 22.4537 22.4537 21.5987 22.4537 20.544C22.4537 19.4893 21.5987 18.6343 20.544 18.6343C19.4893 18.6343 18.6343 19.4893 18.6343 20.544C18.6343 21.5987 19.4893 22.4537 20.544 22.4537Z" stroke="white" stroke-width="1.5" stroke-linecap="round" stroke-linejoin="round"/>
<path d="M36.4583 28.8194L30.0925 22.4536L16.0879 36.4582" stroke="white" stroke-width="1.5" stroke-linecap="round" stroke-linejoin="round"/>
</svg>
