<svg width="32" height="32" viewBox="0 0 32 32" fill="none" xmlns="http://www.w3.org/2000/svg">
<path d="M12.889 28.4444C13.6254 28.4444 14.2223 27.8475 14.2223 27.1111C14.2223 26.3747 13.6254 25.7778 12.889 25.7778C12.1526 25.7778 11.5557 26.3747 11.5557 27.1111C11.5557 27.8475 12.1526 28.4444 12.889 28.4444Z" fill="black" stroke="black" stroke-width="2" stroke-linecap="round" stroke-linejoin="round"/>
<path d="M25.3333 28.4444C26.0697 28.4444 26.6667 27.8475 26.6667 27.1111C26.6667 26.3747 26.0697 25.7778 25.3333 25.7778C24.597 25.7778 24 26.3747 24 27.1111C24 27.8475 24.597 28.4444 25.3333 28.4444Z" fill="black" stroke="black" stroke-width="2" stroke-linecap="round" stroke-linejoin="round"/>
<path d="M2.66675 2.66666H7.51523L10.7637 18.5359C10.8746 19.0815 11.1782 19.5717 11.6213 19.9205C12.0645 20.2694 12.6191 20.4547 13.188 20.444H24.9698C25.5386 20.4547 26.0932 20.2694 26.5364 19.9205C26.9796 19.5717 27.2832 19.0815 27.394 18.5359L29.3334 8.59245H8.72735" stroke="black" stroke-width="2" stroke-linecap="round" stroke-linejoin="round"/>
</svg>
