<svg width="32" height="32" viewBox="0 0 32 32" fill="none" xmlns="http://www.w3.org/2000/svg">
<path d="M8 2.6665L4 7.99984V26.6665C4 27.3737 4.28095 28.052 4.78105 28.5521C5.28115 29.0522 5.95942 29.3332 6.66667 29.3332H25.3333C26.0406 29.3332 26.7189 29.0522 27.219 28.5521C27.719 28.052 28 27.3737 28 26.6665V7.99984L24 2.6665H8Z" stroke="white" stroke-width="2" stroke-linecap="round" stroke-linejoin="round"/>
<path d="M4 8H28" stroke="white" stroke-width="2" stroke-linecap="round" stroke-linejoin="round"/>
<path d="M21.3333 13.3335C21.3333 14.748 20.7714 16.1045 19.7712 17.1047C18.771 18.1049 17.4144 18.6668 16 18.6668C14.5855 18.6668 13.2289 18.1049 12.2287 17.1047C11.2285 16.1045 10.6666 14.748 10.6666 13.3335" stroke="white" stroke-width="2" stroke-linecap="round" stroke-linejoin="round"/>
</svg>
